<svg width="311" height="83" viewBox="0 0 311 83" fill="none" xmlns="http://www.w3.org/2000/svg">
<g filter="url(#filter0_d_310_12107)">
<path d="M97.9688 57V33.7344H107C109.354 33.7344 111.125 33.8854 112.312 34.1875C113.5 34.4896 114.464 35.0625 115.203 35.9062C115.953 36.7396 116.328 37.8177 116.328 39.1406C116.328 41.4427 115.193 43.1042 112.922 44.125V44.25C116.224 44.9688 117.875 46.8438 117.875 49.875C117.875 51.9479 117.078 53.6562 115.484 55C113.901 56.3333 111.448 57 108.125 57H97.9688ZM103.938 38V42.9219H104.875C106.615 42.9219 107.734 42.875 108.234 42.7812C108.745 42.6771 109.198 42.4479 109.594 42.0938C109.99 41.7396 110.188 41.1458 110.188 40.3125C110.188 39.7292 110.021 39.2448 109.688 38.8594C109.365 38.4635 108.896 38.224 108.281 38.1406C107.667 38.0469 106.406 38 104.5 38H103.938ZM103.938 46.9375V52.7344H106.547C107.849 52.7344 108.823 52.6667 109.469 52.5312C110.125 52.3854 110.651 52.0885 111.047 51.6406C111.453 51.1823 111.656 50.5625 111.656 49.7812C111.656 48.8229 111.391 48.125 110.859 47.6875C110.328 47.2396 109.318 46.9948 107.828 46.9531L106.562 46.9375H103.938ZM139.516 57H133.891V55.0625C132.578 56.0417 131.521 56.6875 130.719 57C129.927 57.3229 129 57.4844 127.938 57.4844C126 57.4844 124.505 56.9271 123.453 55.8125C122.411 54.6979 121.891 53.0521 121.891 50.875V39.4531H127.547V48.1562C127.547 50.375 127.776 51.7292 128.234 52.2188C128.703 52.6979 129.495 52.9375 130.609 52.9375C131.693 52.9375 132.786 52.5885 133.891 51.8906V39.4531H139.516V57ZM161.906 57H156.281V55.1719C154.417 56.7135 152.536 57.4844 150.641 57.4844C148.505 57.4844 146.797 56.6667 145.516 55.0312C144.234 53.3854 143.594 51.1615 143.594 48.3594C143.594 45.5469 144.365 43.2812 145.906 41.5625C147.458 39.8333 149.365 38.9688 151.625 38.9688C153.115 38.9688 154.667 39.3646 156.281 40.1562V32.6875H161.906V57ZM156.281 52.1562V43.5469C155.542 43.2344 154.724 43.0781 153.828 43.0781C150.87 43.0781 149.391 44.8177 149.391 48.2969C149.391 50.0156 149.688 51.2656 150.281 52.0469C150.875 52.8177 151.828 53.2031 153.141 53.2031C154.224 53.2031 155.271 52.8542 156.281 52.1562ZM184.281 54.9844C184.281 57.9219 183.505 60.0938 181.953 61.5C180.401 62.9062 177.922 63.6094 174.516 63.6094C172.224 63.6094 170 63.3594 167.844 62.8594V58.4688H168.531C170.49 59.1875 172.214 59.5469 173.703 59.5469C175.464 59.5469 176.729 59.25 177.5 58.6562C178.271 58.0625 178.656 56.9375 178.656 55.2812V54.9531C177.188 56.151 175.521 56.75 173.656 56.75C168.531 56.75 165.969 53.7604 165.969 47.7812C165.969 45.0312 166.734 42.875 168.266 41.3125C169.807 39.75 171.693 38.9688 173.922 38.9688C175.703 38.9688 177.271 39.3906 178.625 40.2344L178.828 39.4531H184.281V54.9844ZM178.656 51.4688V43.5156C177.906 43.224 177.089 43.0781 176.203 43.0781C173.245 43.0781 171.766 44.6875 171.766 47.9062C171.766 49.6042 172.078 50.7865 172.703 51.4531C173.339 52.1094 174.276 52.4375 175.516 52.4375C176.599 52.4375 177.646 52.1146 178.656 51.4688ZM206.875 49.2656H194C194.188 52.099 196.13 53.5156 199.828 53.5156C201.995 53.5156 204.026 52.8438 205.922 51.5H206.547V56.0156C204.214 56.9844 201.771 57.4688 199.219 57.4688C195.719 57.4688 193.026 56.6823 191.141 55.1094C189.255 53.5365 188.312 51.276 188.312 48.3281C188.312 45.4323 189.198 43.1406 190.969 41.4531C192.75 39.7552 195.188 38.9062 198.281 38.9062C201.135 38.9062 203.281 39.6302 204.719 41.0781C206.156 42.5156 206.875 44.5885 206.875 47.2969V49.2656ZM201.281 45.9688C201.229 43.6042 200.078 42.4219 197.828 42.4219C195.443 42.4219 194.161 43.6042 193.984 45.9688H201.281ZM222.062 56.8438C220.854 57.1771 219.385 57.3438 217.656 57.3438C215.469 57.3438 213.839 56.9062 212.766 56.0312C211.703 55.1458 211.172 53.625 211.172 51.4688V43.2656H208.859V39.4531H211.172V34.4375H216.797V39.4531H222.062V43.2656H216.797V49.4844C216.797 50.7656 216.849 51.6146 216.953 52.0312C217.057 52.4479 217.292 52.8021 217.656 53.0938C218.031 53.375 218.63 53.5156 219.453 53.5156C220.161 53.5156 220.875 53.3385 221.594 52.9844H222.062V56.8438ZM242.719 49.2656H229.844C230.031 52.099 231.974 53.5156 235.672 53.5156C237.839 53.5156 239.87 52.8438 241.766 51.5H242.391V56.0156C240.057 56.9844 237.615 57.4688 235.062 57.4688C231.562 57.4688 228.87 56.6823 226.984 55.1094C225.099 53.5365 224.156 51.276 224.156 48.3281C224.156 45.4323 225.042 43.1406 226.812 41.4531C228.594 39.7552 231.031 38.9062 234.125 38.9062C236.979 38.9062 239.125 39.6302 240.562 41.0781C242 42.5156 242.719 44.5885 242.719 47.2969V49.2656ZM237.125 45.9688C237.073 43.6042 235.922 42.4219 233.672 42.4219C231.286 42.4219 230.005 43.6042 229.828 45.9688H237.125ZM263.969 49.2656H251.094C251.281 52.099 253.224 53.5156 256.922 53.5156C259.089 53.5156 261.12 52.8438 263.016 51.5H263.641V56.0156C261.307 56.9844 258.865 57.4688 256.312 57.4688C252.812 57.4688 250.12 56.6823 248.234 55.1094C246.349 53.5365 245.406 51.276 245.406 48.3281C245.406 45.4323 246.292 43.1406 248.062 41.4531C249.844 39.7552 252.281 38.9062 255.375 38.9062C258.229 38.9062 260.375 39.6302 261.812 41.0781C263.25 42.5156 263.969 44.5885 263.969 47.2969V49.2656ZM258.375 45.9688C258.323 43.6042 257.172 42.4219 254.922 42.4219C252.536 42.4219 251.255 43.6042 251.078 45.9688H258.375ZM280.656 44.8125H280.156L279.469 44.6875C278.906 44.6042 278.307 44.5625 277.672 44.5625C276.182 44.5625 274.812 44.7917 273.562 45.25V57H267.938V39.4531H273.562V42.0312C275.542 40.2708 277.464 39.3906 279.328 39.3906C279.828 39.3906 280.271 39.4115 280.656 39.4531V44.8125Z" fill="#26692A"/>
<g clip-path="url(#clip0_310_12107)">
<rect x="19" y="7" width="62" height="68" rx="20" fill="white"/>
<path d="M69.8906 51.6406C69.8906 53.75 69.4609 55.6348 68.6016 57.2949C67.7617 58.9551 66.5996 60.332 65.1152 61.4258C63.3965 62.7148 61.502 63.6328 59.4316 64.1797C57.3809 64.7266 54.7734 65 51.6094 65H32.5664V21.377H49.5C53.0156 21.377 55.584 21.4941 57.2051 21.7285C58.8457 21.9629 60.4668 22.4805 62.0684 23.2812C63.7285 24.1211 64.959 25.2539 65.7598 26.6797C66.5801 28.0859 66.9902 29.6973 66.9902 31.5137C66.9902 33.623 66.4336 35.4883 65.3203 37.1094C64.207 38.7109 62.6348 39.9609 60.6035 40.8594V41.0938C63.4551 41.6602 65.7109 42.832 67.3711 44.6094C69.0508 46.3867 69.8906 48.7305 69.8906 51.6406ZM55.4766 33.7109C55.4766 32.9883 55.291 32.2656 54.9199 31.543C54.5684 30.8203 53.9336 30.2832 53.0156 29.9316C52.1953 29.6191 51.1699 29.4531 49.9395 29.4336C48.7285 29.3945 47.0195 29.375 44.8125 29.375H43.7578V38.6035H45.5156C47.293 38.6035 48.8066 38.5742 50.0566 38.5156C51.3066 38.457 52.293 38.2617 53.0156 37.9297C54.0312 37.4805 54.6953 36.9043 55.0078 36.2012C55.3203 35.4785 55.4766 34.6484 55.4766 33.7109ZM58.2305 51.4648C58.2305 50.0781 57.957 49.0137 57.4102 48.2715C56.8828 47.5098 55.9746 46.9434 54.6855 46.5723C53.8066 46.3184 52.5957 46.1816 51.0527 46.1621C49.5098 46.1426 47.8984 46.1328 46.2188 46.1328H43.7578V57.002H44.5781C47.7422 57.002 50.0078 56.9922 51.375 56.9727C52.7422 56.9531 54.002 56.6992 55.1543 56.2109C56.3262 55.7227 57.127 55.0781 57.5566 54.2773C58.0059 53.457 58.2305 52.5195 58.2305 51.4648Z" fill="black"/>
</g>
</g>
<defs>
<filter id="filter0_d_310_12107" x="-4" y="0" width="319" height="90" filterUnits="userSpaceOnUse" color-interpolation-filters="sRGB">
<feFlood flood-opacity="0" result="BackgroundImageFix"/>
<feColorMatrix in="SourceAlpha" type="matrix" values="0 0 0 0 0 0 0 0 0 0 0 0 0 0 0 0 0 0 127 0" result="hardAlpha"/>
<feOffset dy="4"/>
<feGaussianBlur stdDeviation="2"/>
<feComposite in2="hardAlpha" operator="out"/>
<feColorMatrix type="matrix" values="0 0 0 0 0 0 0 0 0 0 0 0 0 0 0 0 0 0 0.25 0"/>
<feBlend mode="normal" in2="BackgroundImageFix" result="effect1_dropShadow_310_12107"/>
<feBlend mode="normal" in="SourceGraphic" in2="effect1_dropShadow_310_12107" result="shape"/>
</filter>
<clipPath id="clip0_310_12107">
<rect x="19" y="7" width="62" height="68" rx="20" fill="white"/>
</clipPath>
</defs>
</svg>
