<svg width="24" height="24" viewBox="0 0 24 24" fill="none" xmlns="http://www.w3.org/2000/svg">
<g clip-path="url(#clip0_69_219)">
<path d="M3.55769 16.1058C4.41797 16.1058 5.11538 15.0597 5.11538 13.7692C5.11538 12.4788 4.41797 11.4327 3.55769 11.4327C2.6974 11.4327 2 12.4788 2 13.7692C2 15.0597 2.6974 16.1058 3.55769 16.1058Z" stroke="#F58300" stroke-width="2" stroke-linecap="round" stroke-linejoin="round"/>
<path d="M8.23054 9.09617C9.09083 9.09617 9.78824 8.05007 9.78824 6.75963C9.78824 5.4692 9.09083 4.4231 8.23054 4.4231C7.37026 4.4231 6.67285 5.4692 6.67285 6.75963C6.67285 8.05007 7.37026 9.09617 8.23054 9.09617Z" stroke="#F58300" stroke-width="2" stroke-linecap="round" stroke-linejoin="round"/>
<path d="M16.0191 9.09617C16.8794 9.09617 17.5768 8.05007 17.5768 6.75963C17.5768 5.4692 16.8794 4.4231 16.0191 4.4231C15.1588 4.4231 14.4614 5.4692 14.4614 6.75963C14.4614 8.05007 15.1588 9.09617 16.0191 9.09617Z" stroke="#F58300" stroke-width="2" stroke-linecap="round" stroke-linejoin="round"/>
<path d="M20.6925 16.1058C21.5528 16.1058 22.2502 15.0597 22.2502 13.7692C22.2502 12.4788 21.5528 11.4327 20.6925 11.4327C19.8321 11.4327 19.1348 12.4788 19.1348 13.7692C19.1348 15.0597 19.8321 16.1058 20.6925 16.1058Z" stroke="#F58300" stroke-width="2" stroke-linecap="round" stroke-linejoin="round"/>
<path d="M16.7983 16.8846C16.7983 19.0342 14.2748 20 12.1252 20C9.97561 20 7.45215 19.0342 7.45215 16.8846C7.45215 14.735 9.00984 11.4327 12.1252 11.4327C15.2406 11.4327 16.7983 14.735 16.7983 16.8846Z" stroke="#F58300" stroke-width="2" stroke-linecap="round" stroke-linejoin="round"/>
</g>
<defs>
<clipPath id="clip0_69_219">
<rect width="23" height="18" fill="white" transform="translate(1 3)"/>
</clipPath>
</defs>
</svg>
