<svg width="24" height="24" viewBox="0 0 24 24" fill="none" xmlns="http://www.w3.org/2000/svg">
<path fill-rule="evenodd" clip-rule="evenodd" d="M10.7196 1.76527C11.4613 1.14719 12.5387 1.14719 13.2804 1.76527L20.9206 8.13209C21.6045 8.70207 22 9.54641 22 10.4368V19C22 20.6569 20.6569 22 19 22H15.5C14.6716 22 14 21.3284 14 20.5V14H10V20.5C10 21.3284 9.32843 22 8.5 22H5C3.34315 22 2 20.6569 2 19V10.4368C2 9.54641 2.39547 8.70207 3.07945 8.13209L10.7196 1.76527ZM19.6402 9.66853L12 3.30171L4.35982 9.66853C4.13182 9.85853 4 10.14 4 10.4368V19C4 19.5523 4.44772 20 5 20H8V14C8 12.8954 8.89543 12 10 12H14C15.1046 12 16 12.8954 16 14V20H19C19.5523 20 20 19.5523 20 19V10.4368C20 10.14 19.8682 9.85853 19.6402 9.66853Z" fill="#27A300"/>
</svg>
