<svg width="24" height="24" viewBox="0 0 24 24" fill="none" xmlns="http://www.w3.org/2000/svg">
<path d="M13.9998 18C14.265 18 14.5194 17.8946 14.7069 17.7071C14.8944 17.5196 14.9998 17.2652 14.9998 17V15C14.9998 14.7348 14.8944 14.4804 14.7069 14.2929C14.5194 14.1054 14.265 14 13.9998 14C13.7346 14 13.4802 14.1054 13.2927 14.2929C13.1052 14.4804 12.9998 14.7348 12.9998 15V17C12.9998 17.2652 13.1052 17.5196 13.2927 17.7071C13.4802 17.8946 13.7346 18 13.9998 18ZM9.99979 18C10.265 18 10.5194 17.8946 10.7069 17.7071C10.8944 17.5196 10.9998 17.2652 10.9998 17V15C10.9998 14.7348 10.8944 14.4804 10.7069 14.2929C10.5194 14.1054 10.265 14 9.99979 14C9.73458 14 9.48022 14.1054 9.29269 14.2929C9.10515 14.4804 8.99979 14.7348 8.99979 15V17C8.99979 17.2652 9.10515 17.5196 9.29269 17.7071C9.48022 17.8946 9.73458 18 9.99979 18ZM18.9998 6H17.6198L15.8898 2.55C15.8369 2.42305 15.7585 2.30837 15.6593 2.21312C15.5601 2.11788 15.4423 2.04411 15.3133 1.99644C15.1843 1.94876 15.0469 1.9282 14.9096 1.93604C14.7723 1.94388 14.6381 1.97996 14.5154 2.04201C14.3927 2.10405 14.2841 2.19075 14.1964 2.29666C14.1087 2.40258 14.0438 2.52545 14.0057 2.65759C13.9676 2.78973 13.9572 2.9283 13.9752 3.06464C13.9931 3.20099 14.0389 3.33217 14.1098 3.45L15.3798 6H8.61979L9.88979 3.45C9.98686 3.2169 9.99215 2.95572 9.90461 2.71888C9.81708 2.48205 9.64319 2.28709 9.41785 2.17316C9.19252 2.05923 8.93244 2.03476 8.68981 2.10466C8.44718 2.17455 8.23997 2.33365 8.10979 2.55L6.37979 6H4.99979C4.29298 6.01075 3.61267 6.27074 3.07884 6.73413C2.54502 7.19752 2.19197 7.83452 2.08196 8.5328C1.97196 9.23109 2.11207 9.94578 2.47758 10.5508C2.84309 11.1559 3.41052 11.6125 4.07979 11.84L4.81979 19.3C4.89441 20.0426 5.24314 20.7307 5.79786 21.2299C6.35259 21.7292 7.07349 22.0037 7.81979 22H16.1998C16.9461 22.0037 17.667 21.7292 18.2217 21.2299C18.7764 20.7307 19.1252 20.0426 19.1998 19.3L19.9398 11.84C20.6105 11.6118 21.1788 11.1536 21.5441 10.5465C21.9093 9.93939 22.048 9.22263 21.9354 8.52314C21.8228 7.82365 21.4663 7.18658 20.929 6.72477C20.3917 6.26296 19.7083 6.00621 18.9998 6ZM17.1898 19.1C17.1649 19.3475 17.0487 19.5769 16.8638 19.7433C16.6789 19.9097 16.4386 20.0012 16.1898 20H7.80979C7.56103 20.0012 7.32073 19.9097 7.13582 19.7433C6.95091 19.5769 6.83467 19.3475 6.80979 19.1L6.09979 12H17.8998L17.1898 19.1ZM18.9998 10H4.99979C4.73458 10 4.48022 9.89464 4.29269 9.7071C4.10515 9.51957 3.99979 9.26521 3.99979 9C3.99979 8.73478 4.10515 8.48043 4.29269 8.29289C4.48022 8.10535 4.73458 8 4.99979 8H18.9998C19.265 8 19.5194 8.10535 19.7069 8.29289C19.8944 8.48043 19.9998 8.73478 19.9998 9C19.9998 9.26521 19.8944 9.51957 19.7069 9.7071C19.5194 9.89464 19.265 10 18.9998 10Z" fill="#147DF5"/>
</svg>
