<svg width="21" height="21" viewBox="0 0 21 21" fill="none" xmlns="http://www.w3.org/2000/svg">
<g clip-path="url(#clip0_307_9928)">
<path d="M9.3058 15.035C7.7218 15.035 6.5098 14.671 5.6698 13.943C4.8298 13.207 4.4098 12.119 4.4098 10.679C4.4098 9.24698 4.8298 8.16298 5.6698 7.42698C6.5098 6.69098 7.7218 6.32698 9.3058 6.33498L13.6258 6.35897V7.89498H9.43781C8.3978 7.89498 7.6258 8.11498 7.1218 8.55498C6.6178 8.99498 6.3658 9.70298 6.3658 10.679C6.3658 11.655 6.6178 12.367 7.1218 12.815C7.6258 13.255 8.3978 13.475 9.43781 13.475H13.7458V15.035H9.3058Z" fill="#F5B700"/>
<line x1="11.5498" y1="4.47498" x2="11.5498" y2="16.475" stroke="#F5B700" stroke-linecap="round"/>
<line x1="8.5498" y1="4.47498" x2="8.5498" y2="16.475" stroke="#F5B700" stroke-linecap="round"/>
<circle cx="10.0498" cy="10.975" r="9.5" stroke="#F5B700"/>
</g>
<defs>
<clipPath id="clip0_307_9928">
<rect width="20" height="20" fill="white" transform="translate(0.0498047 0.974976)"/>
</clipPath>
</defs>
</svg>
