<svg width="24" height="24" viewBox="0 0 24 24" fill="none" xmlns="http://www.w3.org/2000/svg">
<path fill-rule="evenodd" clip-rule="evenodd" d="M21.6693 9.20716C21.822 9.32608 21.9368 9.48674 22 9.66966C22.0486 9.85253 22.0444 10.0455 21.9877 10.226C21.9311 10.4066 21.8244 10.5673 21.68 10.6897L17.55 14.6897L18.55 20.3697C18.5857 20.5571 18.567 20.7509 18.4961 20.9281C18.4252 21.1053 18.3051 21.2585 18.15 21.3697C17.9784 21.4939 17.7718 21.5604 17.56 21.5597C17.3988 21.5602 17.2403 21.5188 17.1 21.4397L12 18.7597L6.87998 21.4297C6.71575 21.5167 6.5305 21.5563 6.34503 21.5439C6.15955 21.5316 5.98119 21.4678 5.82998 21.3597C5.67483 21.2485 5.55473 21.0953 5.48385 20.9181C5.41297 20.7409 5.39428 20.5471 5.42998 20.3597L6.42998 14.6797L2.29998 10.6797C2.17144 10.5514 2.08025 10.3905 2.03621 10.2143C1.99216 10.0382 1.99692 9.85333 2.04998 9.67966C2.10794 9.50193 2.21455 9.34401 2.35773 9.22381C2.5009 9.10362 2.6749 9.02596 2.85998 8.99966L8.54998 8.15966L11.1 2.99966C11.1819 2.83059 11.3097 2.688 11.4689 2.58823C11.6281 2.48846 11.8121 2.43555 12 2.43555C12.1878 2.43555 12.3719 2.48846 12.5311 2.58823C12.6902 2.688 12.8181 2.83059 12.9 2.99966L15.45 8.16966L21.14 8.99966C21.3328 9.01615 21.5167 9.08823 21.6693 9.20716Z" fill="#FFD300"/>
</svg>
