<svg width="18" height="9" viewBox="0 0 18 9" fill="none" xmlns="http://www.w3.org/2000/svg">
<path d="M9.02344 9H6.42188L4.54102 6.12891L2.625 9H0.140625L3.23438 4.60547L0.205078 0.275391H2.80078L4.61719 2.99414L6.48633 0.275391H8.97656L5.92969 4.51758L9.02344 9ZM17.4785 3.0293C17.4785 3.41992 17.4102 3.80273 17.2734 4.17773C17.1367 4.54883 16.9414 4.86133 16.6875 5.11523C16.3398 5.45898 15.9512 5.71875 15.5215 5.89453C15.0957 6.07031 14.5645 6.1582 13.9277 6.1582H12.5273V9H10.2773V0.275391H13.9805C14.5352 0.275391 15.002 0.324219 15.3809 0.421875C15.7637 0.515625 16.1016 0.658203 16.3945 0.849609C16.7461 1.08008 17.0137 1.375 17.1973 1.73438C17.3848 2.09375 17.4785 2.52539 17.4785 3.0293ZM15.1523 3.08203C15.1523 2.83594 15.0859 2.625 14.9531 2.44922C14.8203 2.26953 14.666 2.14453 14.4902 2.07422C14.2559 1.98047 14.0273 1.92969 13.8047 1.92188C13.582 1.91016 13.2852 1.9043 12.9141 1.9043H12.5273V4.51758H13.1719C13.5547 4.51758 13.8691 4.49414 14.1152 4.44727C14.3652 4.40039 14.5742 4.30664 14.7422 4.16602C14.8867 4.04102 14.9902 3.89258 15.0527 3.7207C15.1191 3.54492 15.1523 3.33203 15.1523 3.08203Z" fill="#4A824E"/>
</svg>
