<svg width="22" height="21" viewBox="0 0 22 21" fill="none" xmlns="http://www.w3.org/2000/svg">
<path d="M2.6499 7.5H19.1499V18C19.1499 18.3978 18.9918 18.7794 18.7106 19.0606C18.4293 19.3419 18.0477 19.5 17.6499 19.5H4.1499C3.75207 19.5 3.37055 19.3419 3.08924 19.0606C2.80794 18.7794 2.6499 18.3978 2.6499 18V7.5Z" stroke="currentColor" stroke-width="1.5" stroke-linecap="round" stroke-linejoin="round"/>
<path d="M20.6499 6V3C20.6499 2.17158 19.9784 1.5 19.1499 1.5H2.6499C1.82147 1.5 1.1499 2.17158 1.1499 3V6C1.1499 6.82842 1.82147 7.5 2.6499 7.5H19.1499C19.9784 7.5 20.6499 6.82842 20.6499 6Z" stroke="currentColor" stroke-width="1.5" stroke-linecap="round" stroke-linejoin="round"/>
<path d="M8.6499 12H13.1499" stroke="currentColor" stroke-width="1.5" stroke-linecap="round" stroke-linejoin="round"/>
</svg>
