<svg width="21" height="15" viewBox="0 0 21 15" fill="none" xmlns="http://www.w3.org/2000/svg">
<path d="M6.60059 4.52893V7.99527" stroke="currentColor" stroke-width="1.5" stroke-linecap="round" stroke-linejoin="round"/>
<path d="M8.33403 6.26221H4.86768" stroke="currentColor" stroke-width="1.5" stroke-linecap="round" stroke-linejoin="round"/>
<path d="M1.88475 4.81788L1.26647 10.3825C1.04108 12.411 2.62893 14.1851 4.66989 14.1851C5.96694 14.1851 7.15268 13.4522 7.73274 12.2921L8.27184 11.2139H12.7286L13.2677 12.2921C13.8478 13.4522 15.0335 14.1851 16.3306 14.1851C18.3715 14.1851 19.9594 12.411 19.7339 10.3825L19.1156 4.81788C18.8624 2.53893 16.9361 0.814819 14.6432 0.814819H6.35723C4.06427 0.814819 2.13797 2.53893 1.88475 4.81788Z" stroke="currentColor" stroke-width="1.5" stroke-linejoin="round"/>
<path d="M15.6999 5.27172C15.4948 5.27172 15.3286 5.10544 15.3286 4.90032C15.3286 4.69521 15.4948 4.52893 15.6999 4.52893" stroke="currentColor" stroke-width="1.5" stroke-linecap="round" stroke-linejoin="round"/>
<path d="M15.6997 5.27172C15.9049 5.27172 16.0711 5.10544 16.0711 4.90032C16.0711 4.69521 15.9049 4.52893 15.6997 4.52893" stroke="currentColor" stroke-width="1.5" stroke-linecap="round" stroke-linejoin="round"/>
<path d="M13.1001 7.12872C13.1001 6.92361 13.2664 6.75732 13.4715 6.75732C13.6766 6.75732 13.8429 6.92361 13.8429 7.12872" stroke="currentColor" stroke-width="1.5" stroke-linecap="round" stroke-linejoin="round"/>
<path d="M13.1001 7.12866C13.1001 7.33379 13.2664 7.50006 13.4715 7.50006C13.6766 7.50006 13.8429 7.33379 13.8429 7.12866" stroke="currentColor" stroke-width="1.5" stroke-linecap="round" stroke-linejoin="round"/>
</svg>
