<svg width="21" height="21" viewBox="0 0 21 21" fill="none" xmlns="http://www.w3.org/2000/svg">
<path d="M10.7998 20.25C16.1847 20.25 20.5498 15.8849 20.5498 10.5C20.5498 5.11523 16.1847 0.75 10.7998 0.75C5.41503 0.75 1.0498 5.11523 1.0498 10.5C1.0498 15.8849 5.41503 20.25 10.7998 20.25Z" stroke="currentColor" stroke-width="1.5" stroke-linecap="round" stroke-linejoin="round"/>
<path d="M10.7998 0.75V20.25" stroke="currentColor" stroke-width="1.5" stroke-linecap="round" stroke-linejoin="round"/>
<path d="M3.44971 16.905C4.5488 16.2359 5.45728 15.2952 6.08774 14.1735C6.71822 13.0518 7.04948 11.7867 7.04971 10.5C7.04948 9.21321 6.71822 7.94816 6.08774 6.82644C5.45728 5.70473 4.5488 4.76409 3.44971 4.09497" stroke="currentColor" stroke-width="1.5" stroke-linecap="round" stroke-linejoin="round"/>
<path d="M18.1497 4.09497C17.051 4.76433 16.1429 5.70509 15.5129 6.82679C14.8827 7.94849 14.5518 9.21341 14.5518 10.5C14.5518 11.7865 14.8827 13.0515 15.5129 14.1732C16.1429 15.2949 17.051 16.2356 18.1497 16.905" stroke="currentColor" stroke-width="1.5" stroke-linecap="round" stroke-linejoin="round"/>
</svg>
