<svg width="22" height="21" viewBox="0 0 22 21" fill="none" xmlns="http://www.w3.org/2000/svg">
<path d="M17.2998 6.75C18.9567 6.75 20.2998 5.40686 20.2998 3.75C20.2998 2.09314 18.9567 0.75 17.2998 0.75C15.6429 0.75 14.2998 2.09314 14.2998 3.75C14.2998 5.40686 15.6429 6.75 17.2998 6.75Z" stroke="currentColor" stroke-width="1.5" stroke-linecap="round" stroke-linejoin="round"/>
<path d="M17.2998 9.75C13.5498 9.75 13.5498 20.25 13.5498 20.25H21.0498C21.0498 20.25 21.0498 9.75 17.2998 9.75Z" stroke="currentColor" stroke-width="1.5" stroke-linecap="round" stroke-linejoin="round"/>
<path d="M5.2998 6.75C6.95666 6.75 8.2998 5.40686 8.2998 3.75C8.2998 2.09314 6.95666 0.75 5.2998 0.75C3.64295 0.75 2.2998 2.09314 2.2998 3.75C2.2998 5.40686 3.64295 6.75 5.2998 6.75Z" stroke="currentColor" stroke-width="1.5" stroke-linecap="round" stroke-linejoin="round"/>
<path d="M5.2998 20.25C1.5498 20.25 1.5498 9.75 1.5498 9.75H9.0498C9.0498 9.75 9.0498 20.25 5.2998 20.25Z" stroke="currentColor" stroke-width="1.5" stroke-linecap="round" stroke-linejoin="round"/>
</svg>
