<svg width="24" height="24" viewBox="0 0 24 24" fill="none" xmlns="http://www.w3.org/2000/svg">
<path d="M7.00002 5.99999C6.80224 5.99999 6.6089 6.05864 6.44445 6.16852C6.28 6.2784 6.15182 6.43458 6.07614 6.6173C6.00045 6.80003 5.98065 7.0011 6.01923 7.19508C6.05782 7.38906 6.15306 7.56724 6.29291 7.70709C6.43276 7.84695 6.61095 7.94219 6.80493 7.98077C6.99891 8.01936 7.19997 7.99955 7.3827 7.92387C7.56543 7.84818 7.7216 7.72001 7.83149 7.55556C7.94137 7.39111 8.00002 7.19777 8.00002 6.99999C8.00002 6.73477 7.89466 6.48042 7.70712 6.29288C7.51959 6.10534 7.26523 5.99999 7.00002 5.99999ZM21.71 11.78L12.23 2.31999C12.1368 2.21945 12.0239 2.13916 11.8983 2.08411C11.7727 2.02906 11.6371 2.00043 11.5 1.99999H5.50002C5.36841 1.99923 5.23795 2.02445 5.11611 2.07421C4.99427 2.12398 4.88346 2.1973 4.79002 2.28999L2.29002 4.77999C2.19734 4.87343 2.12401 4.98424 2.07425 5.10608C2.02448 5.22792 1.99926 5.35838 2.00002 5.48999V11.49C2.0037 11.7548 2.10728 12.0084 2.29002 12.2L11.78 21.7C11.9717 21.8827 12.2253 21.9863 12.49 21.99C12.6216 21.9907 12.7521 21.9655 12.8739 21.9158C12.9958 21.866 13.1066 21.7927 13.2 21.7L21.71 13.19C21.8027 13.0965 21.876 12.9857 21.9258 12.8639C21.9756 12.7421 22.0008 12.6116 22 12.48C21.9938 12.2187 21.8904 11.9691 21.71 11.78ZM12.49 19.59L4.00002 11.09V5.89999L5.90002 3.99999H11.08L19.58 12.49L12.49 19.59Z" fill="#8A817C"/>
</svg>
