<svg width="23" height="24" viewBox="0 0 23 24" fill="none" xmlns="http://www.w3.org/2000/svg">
<path d="M17 12.15V3C17 2.73478 16.8946 2.48043 16.7071 2.29289C16.5196 2.10536 16.2652 2 16 2C15.7348 2 15.4804 2.10536 15.2929 2.29289C15.1054 2.48043 15 2.73478 15 3V12.15C14.134 12.4015 13.3731 12.9275 12.832 13.649C12.2909 14.3704 11.9989 15.2482 12 16.15C12 18.2 13.52 21.95 16 21.95C18.48 21.95 20 18.2 20 16.15C20.0011 15.2482 19.7091 14.3704 19.168 13.649C18.6269 12.9275 17.866 12.4015 17 12.15ZM16 20C15.2 20 14 17.73 14 16.2C13.9755 15.6436 14.172 15.1 14.5467 14.6879C14.9213 14.2758 15.4438 14.0285 16 14C16.5562 14.0285 17.0787 14.2758 17.4533 14.6879C17.828 15.1 18.0245 15.6436 18 16.2C18 17.73 16.8 20 16 20ZM9 2C8.73478 2 8.48043 2.10536 8.29289 2.29289C8.10536 2.48043 8 2.73478 8 3V8.46L7 9.13V3C7 2.73478 6.89464 2.48043 6.70711 2.29289C6.51957 2.10536 6.26522 2 6 2C5.73478 2 5.48043 2.10536 5.29289 2.29289C5.10536 2.48043 5 2.73478 5 3V9.13L4 8.46V3C4 2.73478 3.89464 2.48043 3.70711 2.29289C3.51957 2.10536 3.26522 2 3 2C2.73478 2 2.48043 2.10536 2.29289 2.29289C2.10536 2.48043 2 2.73478 2 3V9C2.00085 9.16471 2.04238 9.32665 2.12088 9.47145C2.19938 9.61625 2.31244 9.73941 2.45 9.83L5 11.54V21C5 21.2652 5.10536 21.5196 5.29289 21.7071C5.48043 21.8946 5.73478 22 6 22C6.26522 22 6.51957 21.8946 6.70711 21.7071C6.89464 21.5196 7 21.2652 7 21V11.54L9.55 9.83C9.68756 9.73941 9.80062 9.61625 9.87912 9.47145C9.95763 9.32665 9.99915 9.16471 10 9V3C10 2.73478 9.89464 2.48043 9.70711 2.29289C9.51957 2.10536 9.26522 2 9 2Z" fill="currentColor"/>
</svg>
