<svg width="24" height="24" viewBox="0 0 24 24" fill="none" xmlns="http://www.w3.org/2000/svg">
<path d="M8.82011 11.29C8.72638 11.383 8.65198 11.4936 8.60121 11.6154C8.55045 11.7373 8.52431 11.868 8.52431 12C8.52431 12.132 8.55045 12.2627 8.60121 12.3846C8.65198 12.5064 8.72638 12.617 8.82011 12.71C9.00747 12.8963 9.26092 13.0008 9.5251 13.0008C9.78929 13.0008 10.0427 12.8963 10.2301 12.71C10.3238 12.617 10.3982 12.5064 10.449 12.3846C10.4998 12.2627 10.5259 12.132 10.5259 12C10.5259 11.868 10.4998 11.7373 10.449 11.6154C10.3982 11.4936 10.3238 11.383 10.2301 11.29C10.0427 11.1038 9.78929 10.9992 9.5251 10.9992C9.26092 10.9992 9.00747 11.1038 8.82011 11.29ZM11.2901 13.77C11.1039 13.9574 10.9993 14.2108 10.9993 14.475C10.9993 14.7392 11.1039 14.9926 11.2901 15.18C11.3831 15.2737 11.4937 15.3481 11.6155 15.3989C11.7374 15.4497 11.8681 15.4758 12.0001 15.4758C12.1321 15.4758 12.2628 15.4497 12.3847 15.3989C12.5065 15.3481 12.6171 15.2737 12.7101 15.18C12.8964 14.9926 13.0009 14.7392 13.0009 14.475C13.0009 14.2108 12.8964 13.9574 12.7101 13.77C12.6171 13.6763 12.5065 13.6019 12.3847 13.5511C12.2628 13.5003 12.1321 13.4742 12.0001 13.4742C11.8681 13.4742 11.7374 13.5003 11.6155 13.5511C11.4937 13.6019 11.3831 13.6763 11.2901 13.77ZM20.2901 3.77C19.2023 2.67323 17.7334 2.03826 16.1892 1.99728C14.645 1.9563 13.1445 2.51247 12.0001 3.55C10.861 2.52458 9.37257 1.97398 7.84033 2.01117C6.30808 2.04836 4.84817 2.67052 3.76011 3.75C2.67912 4.83984 2.05695 6.30254 2.02161 7.83715C1.98627 9.37176 2.54044 10.8616 3.57011 12C2.80028 12.8606 2.29514 13.9251 2.11532 15.0657C1.93549 16.2063 2.08861 17.3746 2.5563 18.4304C3.024 19.4861 3.78639 20.3845 4.75201 21.0176C5.71762 21.6508 6.84544 21.9919 8.00011 22C9.48033 22.0016 10.9074 21.4486 12.0001 20.45C13.1398 21.4784 14.6303 22.0308 16.165 21.9936C17.6996 21.9564 19.1616 21.3324 20.2501 20.25C21.3297 19.1589 21.9501 17.6955 21.9835 16.1609C22.017 14.6263 21.4611 13.1372 20.4301 12C21.4611 10.8628 22.017 9.37374 21.9835 7.83915C21.9501 6.30455 21.3297 4.84114 20.2501 3.75L20.2901 3.77ZM18.8301 5.17C19.5255 5.88539 19.9285 6.83484 19.96 7.83205C19.9914 8.82925 19.6491 9.80221 19.0001 10.56L13.4401 5C14.2045 4.36574 15.1745 4.03291 16.1673 4.06422C17.1601 4.09554 18.1072 4.48883 18.8301 5.17ZM5.17011 18.83C4.47467 18.1146 4.07169 17.1652 4.04024 16.168C4.00879 15.1708 4.35114 14.1978 5.00011 13.44L10.6001 19.04C9.82721 19.678 8.84652 20.0093 7.84506 19.9705C6.84359 19.9318 5.89141 19.5258 5.17011 18.83ZM18.8301 18.83C18.0708 19.5562 17.0607 19.9614 16.0101 19.9614C14.9595 19.9614 13.9494 19.5562 13.1901 18.83L5.19011 10.83C4.4451 10.0806 4.02693 9.06674 4.02693 8.01C4.02693 6.95326 4.4451 5.93945 5.19011 5.19C5.93956 4.445 6.95336 4.02683 8.01011 4.02683C9.06685 4.02683 10.0807 4.445 10.8301 5.19L18.8301 13.19C19.5751 13.9395 19.9933 14.9533 19.9933 16.01C19.9933 17.0667 19.5751 18.0806 18.8301 18.83ZM13.7701 11.29C13.6764 11.383 13.602 11.4936 13.5512 11.6154C13.5004 11.7373 13.4743 11.868 13.4743 12C13.4743 12.132 13.5004 12.2627 13.5512 12.3846C13.602 12.5064 13.6764 12.617 13.7701 12.71C13.9575 12.8963 14.2109 13.0008 14.4751 13.0008C14.7393 13.0008 14.9927 12.8963 15.1801 12.71C15.2738 12.617 15.3482 12.5064 15.399 12.3846C15.4498 12.2627 15.4759 12.132 15.4759 12C15.4759 11.868 15.4498 11.7373 15.399 11.6154C15.3482 11.4936 15.2738 11.383 15.1801 11.29C14.9927 11.1038 14.7393 10.9992 14.4751 10.9992C14.2109 10.9992 13.9575 11.1038 13.7701 11.29ZM11.2901 8.82C11.1039 9.00736 10.9993 9.26082 10.9993 9.525C10.9993 9.78919 11.1039 10.0426 11.2901 10.23C11.3831 10.3237 11.4937 10.3981 11.6155 10.4489C11.7374 10.4997 11.8681 10.5258 12.0001 10.5258C12.1321 10.5258 12.2628 10.4997 12.3847 10.4489C12.5065 10.3981 12.6171 10.3237 12.7101 10.23C12.8964 10.0426 13.0009 9.78919 13.0009 9.525C13.0009 9.26082 12.8964 9.00736 12.7101 8.82C12.6171 8.72627 12.5065 8.65188 12.3847 8.60111C12.2628 8.55034 12.1321 8.5242 12.0001 8.5242C11.8681 8.5242 11.7374 8.55034 11.6155 8.60111C11.4937 8.65188 11.3831 8.72627 11.2901 8.82Z" fill="#16DB65"/>
</svg>
