<svg width="22" height="21" viewBox="0 0 22 21" fill="none" xmlns="http://www.w3.org/2000/svg">
<path d="M11.2998 20.2498C9.1027 17.8308 6.12302 16.2641 2.88484 15.8249C2.51626 15.7841 2.17585 15.6081 1.92931 15.3312C1.68277 15.0542 1.54758 14.6956 1.54983 14.3248V2.24982C1.54982 2.03316 1.59674 1.81907 1.68737 1.62227C1.778 1.42548 1.91018 1.25065 2.07483 1.10982C2.23658 0.97155 2.4259 0.869279 2.63021 0.809796C2.83451 0.750314 3.04915 0.734982 3.25984 0.764819C6.35627 1.27873 9.18892 2.82189 11.2998 5.14482V20.2498Z" stroke="currentColor" stroke-width="1.5" stroke-linecap="round" stroke-linejoin="round"/>
<path d="M11.2998 20.2498C13.4969 17.8308 16.4766 16.2641 19.7148 15.8249C20.0834 15.7841 20.4239 15.6081 20.6703 15.3312C20.9169 15.0542 21.0521 14.6956 21.0498 14.3248V2.24982C21.0498 2.03316 21.0029 1.81907 20.9123 1.62227C20.8217 1.42548 20.6895 1.25065 20.5248 1.10982C20.3631 0.97155 20.1738 0.869279 19.9695 0.809796C19.7651 0.750314 19.5506 0.734982 19.3398 0.764819C16.2434 1.27873 13.4107 2.82189 11.2998 5.14482V20.2498Z" stroke="currentColor" stroke-width="1.5" stroke-linecap="round" stroke-linejoin="round"/>
</svg>
