<svg width="21" height="21" viewBox="0 0 21 21" fill="none" xmlns="http://www.w3.org/2000/svg">
<path d="M10.5 20.25C15.8849 20.25 20.25 15.8849 20.25 10.5C20.25 5.11523 15.8849 0.75 10.5 0.75C5.11523 0.75 0.75 5.11523 0.75 10.5C0.75 15.8849 5.11523 20.25 10.5 20.25Z" stroke="currentColor" stroke-width="1.5" stroke-linecap="round" stroke-linejoin="round"/>
<path d="M1.5 14.25H4.125C4.8212 14.25 5.48888 13.9734 5.98116 13.4811C6.47345 12.9889 6.75 12.3212 6.75 11.625V9.37499C6.75 8.67879 7.02655 8.01111 7.51884 7.51883C8.01112 7.02654 8.6788 6.74999 9.375 6.74999C10.0712 6.74999 10.7389 6.47342 11.2312 5.98113C11.7234 5.48885 12 4.82118 12 4.12499V0.85498" stroke="currentColor" stroke-width="1.5" stroke-linecap="round" stroke-linejoin="round"/>
<path d="M20.25 10.35C19.499 9.96032 18.6662 9.75467 17.82 9.75H14.625C13.9288 9.75 13.2611 10.0266 12.7688 10.5188C12.2766 11.0111 12 11.6788 12 12.375C12 13.0712 12.2766 13.7389 12.7688 14.2312C13.2611 14.7234 13.9288 15 14.625 15C15.1222 15 15.5992 15.1976 15.9508 15.5492C16.3024 15.9008 16.5 16.3778 16.5 16.875V18.18" stroke="currentColor" stroke-width="1.5" stroke-linecap="round" stroke-linejoin="round"/>
</svg>
