<svg width="22" height="21" viewBox="0 0 22 21" fill="none" xmlns="http://www.w3.org/2000/svg">
<path d="M5.4751 9C7.75327 9 9.6001 7.15317 9.6001 4.875C9.6001 2.59683 7.75327 0.75 5.4751 0.75C3.19693 0.75 1.3501 2.59683 1.3501 4.875C1.3501 7.15317 3.19693 9 5.4751 9Z" stroke="currentColor" stroke-width="1.5" stroke-linecap="round" stroke-linejoin="round"/>
<path d="M16.7251 9C19.0033 9 20.8501 7.15317 20.8501 4.875C20.8501 2.59683 19.0033 0.75 16.7251 0.75C14.4469 0.75 12.6001 2.59683 12.6001 4.875C12.6001 7.15317 14.4469 9 16.7251 9Z" stroke="currentColor" stroke-width="1.5" stroke-linecap="round" stroke-linejoin="round"/>
<path d="M5.4751 20.25C7.75327 20.25 9.6001 18.4032 9.6001 16.125C9.6001 13.8468 7.75327 12 5.4751 12C3.19693 12 1.3501 13.8468 1.3501 16.125C1.3501 18.4032 3.19693 20.25 5.4751 20.25Z" stroke="currentColor" stroke-width="1.5" stroke-linecap="round" stroke-linejoin="round"/>
<path d="M16.7251 20.25C19.0033 20.25 20.8501 18.4032 20.8501 16.125C20.8501 13.8468 19.0033 12 16.7251 12C14.4469 12 12.6001 13.8468 12.6001 16.125C12.6001 18.4032 14.4469 20.25 16.7251 20.25Z" stroke="currentColor" stroke-width="1.5" stroke-linecap="round" stroke-linejoin="round"/>
</svg>
