<svg width="21" height="21" viewBox="0 0 21 21" fill="none" xmlns="http://www.w3.org/2000/svg">
<path d="M15.75 16.5H18.75C19.5784 16.5 20.25 15.8284 20.25 15V11.25C20.25 10.4216 19.5784 9.75 18.75 9.75H15.9884" stroke="currentColor" stroke-width="1.5" stroke-linecap="round" stroke-linejoin="round"/>
<path d="M3 10.3182V17.2499C3 18.9068 4.34314 20.2499 6 20.2499H12C13.6569 20.2499 15 18.9068 15 17.2499V10.3092" stroke="currentColor" stroke-width="1.5" stroke-linecap="round" stroke-linejoin="round"/>
<path d="M3 10.308C1.68917 9.84464 0.75 8.59449 0.75 7.125C0.75 5.26104 2.26104 3.75 4.125 3.75C4.53414 3.75 4.92627 3.82279 5.28915 3.95616C5.55258 2.14283 7.11363 0.75 9 0.75C10.8864 0.75 12.4474 2.14283 12.7108 3.95616C13.0737 3.82281 13.4659 3.75 13.875 3.75C15.7389 3.75 17.25 5.26104 17.25 7.125C17.25 8.98896 15.7389 10.5 13.875 10.5H7.5V13.5C7.5 14.7426 6.49264 15.75 5.25 15.75C4.00736 15.75 3 14.7426 3 13.5V10.308Z" stroke="currentColor" stroke-width="1.5" stroke-linecap="round" stroke-linejoin="round"/>
</svg>
